<svg xmlns="http://www.w3.org/2000/svg" width="189" height="189" viewBox="0 0 189 189"><defs><style>.a{fill:#eaeaea;}.b{fill:none;stroke:#b42997;stroke-linejoin:round;stroke-miterlimit:1.414;}</style></defs><g transform="translate(-182 -6346)"><circle class="a" cx="94.5" cy="94.5" r="94.5" transform="translate(182 6346)"/><path class="b" d="M50.078,84.65a72.635,72.635,0,0,1-8.238,5.915,42.867,42.867,0,0,0,8.238,9.59,42.753,42.753,0,0,0,8.238-9.59A71.319,71.319,0,0,1,50.078,84.65ZM77.119,72.243a47.557,47.557,0,0,1-2,21.208,47.441,47.441,0,0,1-19.342-8.857A35.01,35.01,0,0,0,77.119,72.249Zm-54.084,0a34.992,34.992,0,0,0,21.346,12.35,47.441,47.441,0,0,1-19.342,8.857,47.529,47.529,0,0,1-2-21.2Zm51.486-2.617A31.324,31.324,0,0,1,54.772,81.032a78.536,78.536,0,0,0,8.025-8.92A79.467,79.467,0,0,0,74.522,69.62Zm-48.888,0a78.335,78.335,0,0,0,11.724,2.485,77.931,77.931,0,0,0,8.025,8.914A31.267,31.267,0,0,1,25.633,69.62ZM39.267,31.355a81.739,81.739,0,0,1,10.81-11.887,81.689,81.689,0,0,1,10.81,11.881,82.08,82.08,0,0,1,15.7,3.424,83.394,83.394,0,0,1-4.883,15.3,83.091,83.091,0,0,1,4.883,15.3,82.453,82.453,0,0,1-15.7,3.424,82.371,82.371,0,0,1-10.81,11.881,81.689,81.689,0,0,1-10.81-11.881,82.084,82.084,0,0,1-15.7-3.424,83.393,83.393,0,0,1,4.883-15.3,83.091,83.091,0,0,1-4.883-15.3,82.453,82.453,0,0,1,15.7-3.424ZM10.892,63.185A43.117,43.117,0,0,0,6.71,75.116a42.95,42.95,0,0,0,12.426,2.341,70.233,70.233,0,0,1,1-10.1A69.088,69.088,0,0,1,10.9,63.192Zm78.371,0a70.817,70.817,0,0,1-9.246,4.175,70.409,70.409,0,0,1,1,10.1,43.161,43.161,0,0,0,12.426-2.341,42.76,42.76,0,0,0-4.194-11.931ZM82.816,37.746a47.454,47.454,0,0,1,17.339,12.332A47.454,47.454,0,0,1,82.816,62.409a35.188,35.188,0,0,0-.006-24.663Zm-65.476,0a35.188,35.188,0,0,0,.006,24.663A47.48,47.48,0,0,1,0,50.078,47.454,47.454,0,0,1,17.339,37.746Zm61.89.92a31.4,31.4,0,0,1,0,22.823,78.886,78.886,0,0,0-3.712-11.411,78.886,78.886,0,0,0,3.712-11.411Zm-58.3,0a78.886,78.886,0,0,0,3.712,11.411,78.885,78.885,0,0,0-3.712,11.411,31.4,31.4,0,0,1,0-22.823ZM19.136,22.7A43.161,43.161,0,0,0,6.71,25.039,42.76,42.76,0,0,0,10.9,36.97a70.644,70.644,0,0,1,9.233-4.175,70.409,70.409,0,0,1-1-10.1Zm61.883,0a70.239,70.239,0,0,1-1,10.091,69.091,69.091,0,0,1,9.239,4.169,43.119,43.119,0,0,0,4.181-11.931,42.948,42.948,0,0,0-12.425-2.341ZM54.772,19.136A31.25,31.25,0,0,1,74.522,30.529,79.122,79.122,0,0,0,62.8,28.05a77.932,77.932,0,0,0-8.025-8.914Zm-9.39,0a77.931,77.931,0,0,0-8.025,8.914,79.468,79.468,0,0,0-11.724,2.491A31.324,31.324,0,0,1,45.383,19.136Zm10.391-3.568A47.441,47.441,0,0,1,75.116,6.71a47.529,47.529,0,0,1,2,21.2,34.992,34.992,0,0,0-21.346-12.35ZM23.036,27.918a47.613,47.613,0,0,1,2-21.22,47.441,47.441,0,0,1,19.342,8.857A35.01,35.01,0,0,0,23.036,27.9ZM58.322,9.577A43.254,43.254,0,0,0,50.078,0,42.754,42.754,0,0,0,41.84,9.59a71.32,71.32,0,0,1,8.238,5.915A72.634,72.634,0,0,1,58.315,9.59Z" transform="translate(226.5 6390)"/></g></svg>