<svg xmlns="http://www.w3.org/2000/svg" xmlns:xlink="http://www.w3.org/1999/xlink" width="588" height="128" viewBox="0 0 588 128"><defs><style>.a{fill:url(#a);}.b{fill:#fff;font-size:30px;font-family:HelveticaNeue-Medium, Helvetica Neue;font-weight:500;}.c{fill:none;stroke:#fff;stroke-linejoin:round;stroke-miterlimit:1.414;}</style><linearGradient id="a" x1="1.086" y1="0.273" x2="0" y2="0.374" gradientUnits="objectBoundingBox"><stop offset="0" stop-color="#b42997"/><stop offset="1" stop-color="#351eb4"/></linearGradient></defs><g transform="translate(-1226 -5057)"><rect class="a" width="588" height="128" rx="64" transform="translate(1226 5057)"/><text class="b" transform="translate(1384 5130)"><tspan x="0" y="0">Increased Muscle Strength</tspan></text><path class="c" d="M38.25,64.657a55.479,55.479,0,0,1-6.292,4.518A32.743,32.743,0,0,0,38.25,76.5a32.656,32.656,0,0,0,6.292-7.325A54.474,54.474,0,0,1,38.25,64.657ZM58.905,55.18a36.325,36.325,0,0,1-1.53,16.2A36.236,36.236,0,0,1,42.6,64.614a26.742,26.742,0,0,0,16.3-9.429Zm-41.31,0a26.727,26.727,0,0,0,16.3,9.433,36.236,36.236,0,0,1-14.774,6.765A36.3,36.3,0,0,1,17.6,55.185Zm39.326-2a23.925,23.925,0,0,1-15.085,8.711,59.987,59.987,0,0,0,6.13-6.813,60.7,60.7,0,0,0,8.955-1.9Zm-37.342,0a59.834,59.834,0,0,0,8.955,1.9,59.525,59.525,0,0,0,6.13,6.808,23.882,23.882,0,0,1-15.085-8.711ZM29.993,23.949a62.433,62.433,0,0,1,8.257-9.08,62.4,62.4,0,0,1,8.257,9.075A62.694,62.694,0,0,1,58.5,26.56a63.7,63.7,0,0,1-3.729,11.69A63.467,63.467,0,0,1,58.5,49.94a62.979,62.979,0,0,1-11.991,2.615A62.916,62.916,0,0,1,38.25,61.63a62.4,62.4,0,0,1-8.257-9.075A62.7,62.7,0,0,1,18,49.94a63.7,63.7,0,0,1,3.729-11.69A63.466,63.466,0,0,1,18,26.56a62.979,62.979,0,0,1,11.991-2.615ZM8.319,48.262a32.933,32.933,0,0,0-3.194,9.113,32.805,32.805,0,0,0,9.491,1.788,53.645,53.645,0,0,1,.765-7.712,52.77,52.77,0,0,1-7.057-3.184Zm59.861,0a54.091,54.091,0,0,1-7.062,3.189,53.779,53.779,0,0,1,.765,7.717,32.967,32.967,0,0,0,9.491-1.788,32.661,32.661,0,0,0-3.2-9.113ZM63.256,28.831A36.246,36.246,0,0,1,76.5,38.25a36.246,36.246,0,0,1-13.244,9.419,26.877,26.877,0,0,0,0-18.838Zm-50.012,0a26.877,26.877,0,0,0,0,18.838A36.266,36.266,0,0,1,0,38.25,36.246,36.246,0,0,1,13.244,28.831Zm47.272.7a23.983,23.983,0,0,1,0,17.432,60.254,60.254,0,0,0-2.835-8.716,60.254,60.254,0,0,0,2.835-8.716Zm-44.533,0a60.254,60.254,0,0,0,2.835,8.716,60.253,60.253,0,0,0-2.835,8.716,23.983,23.983,0,0,1,0-17.432ZM14.616,17.342a32.967,32.967,0,0,0-9.491,1.783,32.661,32.661,0,0,0,3.2,9.113,53.959,53.959,0,0,1,7.052-3.189,53.779,53.779,0,0,1-.765-7.717Zm47.267,0a53.65,53.65,0,0,1-.765,7.707,52.773,52.773,0,0,1,7.057,3.184A32.935,32.935,0,0,0,71.37,19.12a32.8,32.8,0,0,0-9.491-1.788ZM41.836,14.616a23.869,23.869,0,0,1,15.085,8.7,60.434,60.434,0,0,0-8.955-1.893,59.525,59.525,0,0,0-6.13-6.809Zm-7.172,0a59.525,59.525,0,0,0-6.13,6.809,60.7,60.7,0,0,0-8.955,1.9,23.925,23.925,0,0,1,15.085-8.711ZM42.6,11.891A36.236,36.236,0,0,1,57.375,5.126a36.3,36.3,0,0,1,1.53,16.194,26.727,26.727,0,0,0-16.3-9.433ZM17.595,21.324a36.368,36.368,0,0,1,1.53-16.208A36.236,36.236,0,0,1,33.9,11.881a26.742,26.742,0,0,0-16.3,9.429ZM44.547,7.315A33.038,33.038,0,0,0,38.25,0a32.656,32.656,0,0,0-6.292,7.325,54.475,54.475,0,0,1,6.292,4.518,55.479,55.479,0,0,1,6.292-4.518Z" transform="translate(1284 5081)"/></g></svg>