<svg xmlns="http://www.w3.org/2000/svg" xmlns:xlink="http://www.w3.org/1999/xlink" width="284" height="76" viewBox="0 0 284 76"><defs><style>.a{fill:url(#a);}.b,.c{stroke:none;}.c{fill:#707070;}</style><linearGradient id="a" x1="-0.036" y1="0.5" x2="1.572" y2="0.5" gradientUnits="objectBoundingBox"><stop offset="0" stop-color="#3500fe"/><stop offset="1" stop-color="#b42997"/></linearGradient></defs><g class="a"><path class="b" d="M 271 75.5 L 13 75.5 C 9.661107063293457 75.5 6.522107124328613 74.19978332519531 4.161142826080322 71.83885955810547 C 1.800214290618896 69.47789001464844 0.5 66.33889007568359 0.5 63 L 0.5 13 C 0.5 9.661107063293457 1.800214290618896 6.522107124328613 4.161142826080322 4.161142826080322 C 6.522107124328613 1.800214290618896 9.661107063293457 0.5 13 0.5 L 271 0.5 C 274.3388671875 0.5 277.4779052734375 1.800214290618896 279.8388366699219 4.161178588867188 C 282.1997985839844 6.522107124328613 283.5 9.66114330291748 283.5 13 L 283.5 63 C 283.5 66.33885955810547 282.1997985839844 69.47789001464844 279.8388366699219 71.83882141113281 C 277.4779052734375 74.19978332519531 274.3388671875 75.5 271 75.5 Z"/><path class="c" d="M 13 1 C 9.794677734375 1 6.781219482421875 2.248214721679688 4.51470947265625 4.514717102050781 C 2.248199462890625 6.781211853027344 1 9.794677734375 1 13 L 1 63 C 1 66.205322265625 2.248199462890625 69.21878814697266 4.51470947265625 71.48528289794922 C 6.781219482421875 73.75178527832031 9.794677734375 75 13 75 L 271 75 C 274.205322265625 75 277.2187805175781 73.75178527832031 279.4852905273438 71.48528289794922 C 281.7518005371094 69.21878814697266 283 66.205322265625 283 63 L 283 13 C 283 9.794677734375 281.7518005371094 6.781211853027344 279.4852905273438 4.514717102050781 C 277.2187805175781 2.248214721679688 274.205322265625 1 271 1 L 13 1 M 13 0 L 271 0 C 278.1796875 0 284 5.820281982421875 284 13 L 284 63 C 284 70.17971801757812 278.1796875 76 271 76 L 13 76 C 5.8203125 76 0 70.17971801757812 0 63 L 0 13 C 0 5.820281982421875 5.8203125 0 13 0 Z"/></g></svg>